<svg width="24" height="24" viewBox="0 0 24 24" fill="none" xmlns="http://www.w3.org/2000/svg">
  <path d="M12 8.25A3.75 3.75 0 1 0 12 15.75A3.75 3.75 0 0 0 12 8.25Z" stroke="#0D1328" stroke-width="1.8"/>
  <path d="M19.2 13.05C19.25 12.7 19.28 12.35 19.28 12C19.28 11.65 19.25 11.3 19.2 10.95L21.25 9.35L19.3 5.98L16.9 6.95C16.35 6.52 15.75 6.17 15.1 5.92L14.75 3.35H10.85L10.5 5.92C9.85 6.17 9.25 6.52 8.7 6.95L6.3 5.98L4.35 9.35L6.4 10.95C6.35 11.3 6.32 11.65 6.32 12C6.32 12.35 6.35 12.7 6.4 13.05L4.35 14.65L6.3 18.02L8.7 17.05C9.25 17.48 9.85 17.83 10.5 18.08L10.85 20.65H14.75L15.1 18.08C15.75 17.83 16.35 17.48 16.9 17.05L19.3 18.02L21.25 14.65L19.2 13.05Z" stroke="#0D1328" stroke-width="1.8" stroke-linejoin="round"/>
</svg>
